<svg xmlns="http://www.w3.org/2000/svg" width="32" height="32">
    <path style="stroke:none;fill-rule:nonzero;fill:#fff;fill-opacity:1" d="M.5 16c0 8.563 6.938 15.5 15.5 15.5 8.563 0 15.5-6.938 15.5-15.5C31.5 7.437 24.562.5 16 .5 7.437.5.5 7.438.5 16Zm28 0c0 6.906-5.594 12.5-12.5 12.5S3.5 22.906 3.5 16 9.094 3.5 16 3.5 28.5 9.094 28.5 16ZM24 14.75v2.5a.75.75 0 0 1-.75.75H16v4.188c0 .667-.805 1-1.281.53L8.53 16.532a.752.752 0 0 1 0-1.062L14.72 9.28A.75.75 0 0 1 16 9.812V14h7.25a.75.75 0 0 1 .75.75Zm0 0"/>
</svg>
