<svg xmlns="http://www.w3.org/2000/svg" width="32" height="32">
    <path style="stroke:none;fill-rule:nonzero;fill:#fff;fill-opacity:1" d="M31.5 16C31.5 7.437 24.562.5 16 .5 7.437.5.5 7.438.5 16c0 8.563 6.938 15.5 15.5 15.5 8.563 0 15.5-6.938 15.5-15.5Zm-28 0C3.5 9.094 9.094 3.5 16 3.5S28.5 9.094 28.5 16 22.906 28.5 16 28.5 3.5 22.906 3.5 16ZM8 17.25v-2.5a.75.75 0 0 1 .75-.75H16V9.812c0-.667.805-1 1.281-.53l6.188 6.187a.752.752 0 0 1 0 1.062L17.28 22.72A.75.75 0 0 1 16 22.187V18H8.75a.75.75 0 0 1-.75-.75Zm0 0"/>
</svg>
