<svg xmlns="http://www.w3.org/2000/svg" width="32" height="32">
    <path style="stroke:none;fill-rule:nonzero;fill:#fff;fill-opacity:1" d="M16 30C8.27 30 2 23.73 2 16S8.27 2 16 2s14 6.27 14 14-6.27 14-14 14Zm0 2c8.836 0 16-7.164 16-16S24.836 0 16 0 0 7.164 0 16s7.164 16 16 16Zm0 0"/>
    <path style="stroke:none;fill-rule:nonzero;fill:#fff;fill-opacity:1" d="M14.004 22c0-1.105.894-2 2-2a1.999 1.999 0 1 1 0 4c-1.106 0-2-.895-2-2Zm.195-12.012a1.813 1.813 0 0 1 .84-1.722 1.814 1.814 0 0 1 1.922 0c.586.367.91 1.035.84 1.722l-.7 7.016A1.108 1.108 0 0 1 16 18.016c-.574 0-1.05-.442-1.102-1.012Zm0 0"/>
</svg>
