<svg xmlns="http://www.w3.org/2000/svg" width="32" height="32">
    <path style="stroke:none;fill-rule:evenodd;fill:#fff;fill-opacity:1" d="M12 25c0 .55.45 1 1 1h16c.55 0 1-.45 1-1V7c0-.55-.45-1-1-1H13c-.55 0-1 .45-1 1v4c0 .55-.45 1-1 1s-1-.45-1-1V7a3 3 0 0 1 3-3h16a3 3 0 0 1 3 3v18a3 3 0 0 1-3 3H13a3 3 0 0 1-3-3v-4c0-.55.45-1 1-1s1 .45 1 1Zm0 0"/>
    <path style="stroke:none;fill-rule:evenodd;fill:#fff;fill-opacity:1" d="M.293 16.707a1 1 0 0 1 0-1.414l6-6a1 1 0 1 1 1.414 1.414L3.414 15H21c.55 0 1 .45 1 1s-.45 1-1 1H3.414l4.293 4.293a1 1 0 1 1-1.414 1.414Zm0 0"/>
</svg>
